<?xml version="1.0" encoding="UTF-8"?>
<svg id="Layer_1" xmlns="http://www.w3.org/2000/svg" version="1.1" viewBox="0 0 108.8 91.7">
  <!-- Generator: Adobe Illustrator 29.6.1, SVG Export Plug-In . SVG Version: 2.1.1 Build 9)  -->
  <defs>
    <style>
      .st0 {
        fill: #ffcb61;
      }
    </style>
  </defs>
  <path class="st0" d="M85.7,54.2H27.6c-3.5,0-6.3-2.8-6.3-6.3s2.8-6.3,6.3-6.3h58.2c3.5,0,6.3,2.8,6.3,6.3,0,3.5-2.9,6.3-6.4,6.3Z"/>
  <path class="st0" d="M85.7,30.8H27.6c-3.5,0-6.3-2.8-6.3-6.3s2.8-6.3,6.3-6.3h58.2c3.5,0,6.3,2.8,6.3,6.3,0,3.5-2.9,6.3-6.4,6.3Z"/>
  <path class="st0" d="M85.7,77.5H27.6c-3.5,0-6.3-2.8-6.3-6.3s2.8-6.3,6.3-6.3h58.2c3.5,0,6.3,2.8,6.3,6.3,0,3.5-2.9,6.3-6.4,6.3Z"/>
</svg>